<mxfile host="65bd71144e">
    <diagram id="2R6dpFcgfahY689tM3Tc" name="Page-1">
        <mxGraphModel dx="1696" dy="1837" grid="1" gridSize="10" guides="1" tooltips="1" connect="1" arrows="1" fold="1" page="1" pageScale="1" pageWidth="850" pageHeight="1100" math="0" shadow="0">
            <root>
                <mxCell id="0"/>
                <mxCell id="1" parent="0"/>
                <mxCell id="100" value="&lt;h2&gt;rlassoIV&lt;/h2&gt;" style="whiteSpace=wrap;html=1;fontSize=15;fontColor=#FFFFFF;strokeColor=#6666FF;strokeWidth=2;fillColor=none;gradientColor=#333AFF;gradientDirection=north;align=right;verticalAlign=top;" parent="1" vertex="1">
                    <mxGeometry x="-285" y="260" width="415" height="320" as="geometry"/>
                </mxCell>
                <mxCell id="93" value="&lt;h2&gt;rlassotreatment&lt;/h2&gt;" style="whiteSpace=wrap;html=1;fontSize=15;fontColor=#FFFFFF;strokeColor=#6666FF;strokeWidth=2;fillColor=none;gradientColor=#333AFF;gradientDirection=north;align=left;verticalAlign=top;" parent="1" vertex="1">
                    <mxGeometry x="200" y="1590" width="680" height="450" as="geometry"/>
                </mxCell>
                <mxCell id="74" value="&lt;h2&gt;RlassoLogitEffect&lt;/h2&gt;" style="whiteSpace=wrap;html=1;fontSize=15;fontColor=#FFFFFF;strokeColor=#6666FF;strokeWidth=2;fillColor=none;gradientColor=#333AFF;gradientDirection=north;verticalAlign=top;align=left;labelPosition=center;verticalLabelPosition=middle;" parent="1" vertex="1">
                    <mxGeometry x="-360" y="1370" width="520" height="350" as="geometry"/>
                </mxCell>
                <mxCell id="67" value="&lt;h2&gt;rlassologit&lt;/h2&gt;" style="whiteSpace=wrap;html=1;fontSize=15;fontColor=#FFFFFF;strokeColor=#6666FF;strokeWidth=2;fillColor=none;gradientColor=#333AFF;gradientDirection=north;verticalAlign=top;align=left;" parent="1" vertex="1">
                    <mxGeometry x="-340" y="1010" width="460" height="350" as="geometry"/>
                </mxCell>
                <mxCell id="43" value="&lt;h2&gt;rlassoEffects&lt;/h2&gt;" style="whiteSpace=wrap;html=1;fontSize=15;strokeWidth=2;align=left;horizontal=1;verticalAlign=top;fillColor=none;strokeColor=#6666FF;gradientColor=#333AFF;gradientDirection=north;" parent="1" vertex="1">
                    <mxGeometry x="400" y="930" width="430" height="580" as="geometry"/>
                </mxCell>
                <mxCell id="58" value="&lt;h2&gt;rlassoIVselectX.&lt;/h2&gt;" style="whiteSpace=wrap;html=1;fontSize=15;strokeColor=#6666FF;strokeWidth=2;fillColor=none;gradientColor=#333AFF;gradientDirection=north;verticalAlign=top;align=left;fontColor=#FFFFFF;" parent="1" vertex="1">
                    <mxGeometry x="-340" y="595" width="480" height="350" as="geometry"/>
                </mxCell>
                <mxCell id="30" value="&lt;h1&gt;rlasso&lt;/h1&gt;" style="whiteSpace=wrap;html=1;fontSize=15;strokeColor=#66FF66;strokeWidth=2;fillColor=none;align=left;verticalAlign=top;" parent="1" vertex="1">
                    <mxGeometry x="280" y="570" width="580" height="260" as="geometry"/>
                </mxCell>
                <mxCell id="99" value="&lt;h2&gt;tsls&lt;/h2&gt;" style="whiteSpace=wrap;html=1;fontSize=15;fontColor=#FFFFFF;strokeColor=#6666FF;strokeWidth=2;fillColor=none;gradientColor=#333AFF;gradientDirection=north;align=left;verticalAlign=top;" parent="1" vertex="1">
                    <mxGeometry x="590" y="280" width="320" height="250" as="geometry"/>
                </mxCell>
                <mxCell id="14" value="&lt;h2&gt;LassoShooting.fit&lt;/h2&gt;" style="whiteSpace=wrap;html=1;fontSize=15;strokeColor=#57FFCD;strokeWidth=1;fillColor=none;align=left;verticalAlign=top;horizontal=1;" parent="1" vertex="1">
                    <mxGeometry x="-210" y="120" width="220" height="140" as="geometry"/>
                </mxCell>
                <mxCell id="18" value="&lt;h2&gt;p_adjust&lt;/h2&gt;" style="whiteSpace=wrap;html=1;fontSize=15;strokeColor=#007FFF;strokeWidth=2;fillColor=none;verticalAlign=bottom;align=right;" parent="1" vertex="1">
                    <mxGeometry x="20" y="110" width="480" height="150" as="geometry"/>
                </mxCell>
                <mxCell id="13" value="&lt;h1&gt;Help functions&lt;/h1&gt;" style="whiteSpace=wrap;html=1;fontSize=15;fillColor=none;strokeColor=#0000FF;strokeWidth=8;align=left;verticalAlign=top;" parent="1" vertex="1">
                    <mxGeometry x="-220" y="-70" width="1070" height="150" as="geometry"/>
                </mxCell>
                <mxCell id="107" style="edgeStyle=none;html=1;exitX=0.25;exitY=0;exitDx=0;exitDy=0;entryX=0;entryY=0.5;entryDx=0;entryDy=0;" parent="1" source="4" target="59" edge="1">
                    <mxGeometry relative="1" as="geometry"/>
                </mxCell>
                <mxCell id="108" style="edgeStyle=none;html=1;exitX=0.5;exitY=0;exitDx=0;exitDy=0;" parent="1" source="4" target="58" edge="1">
                    <mxGeometry relative="1" as="geometry"/>
                </mxCell>
                <mxCell id="109" style="edgeStyle=none;html=1;exitX=0.75;exitY=0;exitDx=0;exitDy=0;entryX=0;entryY=0.5;entryDx=0;entryDy=0;" parent="1" source="4" target="44" edge="1">
                    <mxGeometry relative="1" as="geometry"/>
                </mxCell>
                <mxCell id="110" style="edgeStyle=none;html=1;exitX=0.25;exitY=0;exitDx=0;exitDy=0;entryX=0;entryY=0.75;entryDx=0;entryDy=0;" parent="1" source="4" target="90" edge="1">
                    <mxGeometry relative="1" as="geometry"/>
                </mxCell>
                <mxCell id="111" style="edgeStyle=none;html=1;exitX=0.5;exitY=0;exitDx=0;exitDy=0;entryX=0.5;entryY=1;entryDx=0;entryDy=0;" parent="1" source="4" target="112" edge="1">
                    <mxGeometry relative="1" as="geometry">
                        <mxPoint y="-150" as="targetPoint"/>
                    </mxGeometry>
                </mxCell>
                <mxCell id="4" value="format.perc" style="whiteSpace=wrap;html=1;fontSize=15;" parent="1" vertex="1">
                    <mxGeometry width="120" height="60" as="geometry"/>
                </mxCell>
                <mxCell id="105" style="edgeStyle=none;html=1;exitX=0.25;exitY=1;exitDx=0;exitDy=0;entryX=0.5;entryY=0;entryDx=0;entryDy=0;" parent="1" source="5" target="12" edge="1">
                    <mxGeometry relative="1" as="geometry"/>
                </mxCell>
                <mxCell id="106" style="edgeStyle=none;html=1;exitX=0.25;exitY=1;exitDx=0;exitDy=0;" parent="1" source="5" target="19" edge="1">
                    <mxGeometry relative="1" as="geometry"/>
                </mxCell>
                <mxCell id="5" value="init_values" style="whiteSpace=wrap;html=1;fontSize=15;gradientColor=none;fillColor=#336600;" parent="1" vertex="1">
                    <mxGeometry x="120" width="120" height="60" as="geometry"/>
                </mxCell>
                <mxCell id="6" value="re.escape" style="whiteSpace=wrap;html=1;fontSize=15;" parent="1" vertex="1">
                    <mxGeometry x="360" width="120" height="60" as="geometry"/>
                </mxCell>
                <mxCell id="7" value="f.formula" style="whiteSpace=wrap;html=1;fontSize=15;" parent="1" vertex="1">
                    <mxGeometry x="480" width="120" height="60" as="geometry"/>
                </mxCell>
                <mxCell id="8" value="include" style="whiteSpace=wrap;html=1;fontSize=15;" parent="1" vertex="1">
                    <mxGeometry x="-120" width="120" height="60" as="geometry"/>
                </mxCell>
                <mxCell id="9" value="check_variables" style="whiteSpace=wrap;html=1;fontSize=15;" parent="1" vertex="1">
                    <mxGeometry x="240" width="120" height="60" as="geometry"/>
                </mxCell>
                <mxCell id="10" value="check_binary" style="whiteSpace=wrap;html=1;fontSize=15;" parent="1" vertex="1">
                    <mxGeometry x="600" width="120" height="60" as="geometry"/>
                </mxCell>
                <mxCell id="11" value="contructIV" style="whiteSpace=wrap;html=1;fontSize=15;" parent="1" vertex="1">
                    <mxGeometry x="720" width="120" height="60" as="geometry"/>
                </mxCell>
                <mxCell id="12" value="&lt;span class=&quot;pl-en&quot;&gt;LassoShooting.fit&lt;/span&gt;" style="whiteSpace=wrap;html=1;fontSize=15;strokeColor=none;fillColor=#336600;" parent="1" vertex="1">
                    <mxGeometry x="-160" y="190" width="140" height="50" as="geometry"/>
                </mxCell>
                <mxCell id="15" value="p_adjust" style="whiteSpace=wrap;html=1;fontSize=15;strokeColor=#007FFF;strokeWidth=2;fillColor=none;" parent="1" vertex="1">
                    <mxGeometry x="60" y="150" width="120" height="60" as="geometry"/>
                </mxCell>
                <mxCell id="16" value="p_adjust.rlassoEffects" style="whiteSpace=wrap;html=1;fontSize=15;strokeColor=#007FFF;strokeWidth=2;fillColor=none;" parent="1" vertex="1">
                    <mxGeometry x="180" y="150" width="170" height="60" as="geometry"/>
                </mxCell>
                <mxCell id="17" value="p_adjust.lm" style="whiteSpace=wrap;html=1;fontSize=15;strokeColor=#007FFF;strokeWidth=2;fillColor=none;" parent="1" vertex="1">
                    <mxGeometry x="350" y="150" width="120" height="60" as="geometry"/>
                </mxCell>
                <mxCell id="19" value="rlasso" style="whiteSpace=wrap;html=1;fontSize=15;strokeColor=none;strokeWidth=2;fillColor=#336600;" parent="1" vertex="1">
                    <mxGeometry x="540" y="650" width="120" height="60" as="geometry"/>
                </mxCell>
                <mxCell id="20" value="rlasso.&lt;br&gt;formula" style="whiteSpace=wrap;html=1;fontSize=15;strokeColor=#007FFF;strokeWidth=2;fillColor=none;dashed=1;" parent="1" vertex="1">
                    <mxGeometry x="710" y="790" width="120" height="60" as="geometry"/>
                </mxCell>
                <mxCell id="21" value="rlasso.character" style="whiteSpace=wrap;html=1;fontSize=15;strokeColor=#007FFF;strokeWidth=2;fillColor=none;" parent="1" vertex="1">
                    <mxGeometry x="270" y="720" width="120" height="60" as="geometry"/>
                </mxCell>
                <mxCell id="101" style="edgeStyle=none;html=1;exitX=0;exitY=0.5;exitDx=0;exitDy=0;fontSize=15;fontColor=#FFFFFF;entryX=0;entryY=0.5;entryDx=0;entryDy=0;" parent="1" source="22" target="53" edge="1">
                    <mxGeometry relative="1" as="geometry">
                        <Array as="points">
                            <mxPoint x="180" y="660"/>
                            <mxPoint x="-100" y="660"/>
                        </Array>
                    </mxGeometry>
                </mxCell>
                <mxCell id="22" value="rlasso.default" style="whiteSpace=wrap;html=1;fontSize=15;strokeColor=none;strokeWidth=2;fillColor=#336600;" parent="1" vertex="1">
                    <mxGeometry x="390" y="650" width="150" height="60" as="geometry"/>
                </mxCell>
                <mxCell id="104" style="edgeStyle=none;html=1;exitX=0.5;exitY=0;exitDx=0;exitDy=0;entryX=0.332;entryY=-0.026;entryDx=0;entryDy=0;entryPerimeter=0;" parent="1" source="23" target="19" edge="1">
                    <mxGeometry relative="1" as="geometry">
                        <Array as="points">
                            <mxPoint x="750" y="590"/>
                            <mxPoint x="600" y="600"/>
                        </Array>
                    </mxGeometry>
                </mxCell>
                <mxCell id="23" value="lambdaCalculation" style="whiteSpace=wrap;html=1;fontSize=15;strokeColor=none;strokeWidth=2;fillColor=#336600;" parent="1" vertex="1">
                    <mxGeometry x="675" y="650" width="160" height="60" as="geometry"/>
                </mxCell>
                <mxCell id="24" value="print.rlasso" style="whiteSpace=wrap;html=1;fontSize=15;strokeColor=#007FFF;strokeWidth=2;fillColor=none;dashed=1;" parent="1" vertex="1">
                    <mxGeometry x="582.5" y="740" width="120" height="60" as="geometry"/>
                </mxCell>
                <mxCell id="25" value="summary.rlasso" style="whiteSpace=wrap;html=1;fontSize=15;strokeColor=#007FFF;strokeWidth=2;fillColor=none;dashed=1;" parent="1" vertex="1">
                    <mxGeometry x="710" y="720" width="120" height="60" as="geometry"/>
                </mxCell>
                <mxCell id="26" value="model.matrix.rlasso" style="whiteSpace=wrap;html=1;fontSize=15;strokeColor=#007FFF;strokeWidth=2;fillColor=none;" parent="1" vertex="1">
                    <mxGeometry x="410" y="740" width="150" height="60" as="geometry"/>
                </mxCell>
                <mxCell id="27" value="predict.rlasso" style="whiteSpace=wrap;html=1;fontSize=15;strokeColor=#007FFF;strokeWidth=2;fillColor=none;" parent="1" vertex="1">
                    <mxGeometry x="270" y="780" width="120" height="60" as="geometry"/>
                </mxCell>
                <mxCell id="31" value="rlassoEffects" style="whiteSpace=wrap;html=1;fontSize=15;strokeColor=#66FF66;strokeWidth=2;fillColor=none;" parent="1" vertex="1">
                    <mxGeometry x="432.5" y="1210" width="150" height="60" as="geometry"/>
                </mxCell>
                <mxCell id="32" value="rlassoEffects.default" style="whiteSpace=wrap;html=1;fontSize=15;strokeColor=#66FF66;strokeWidth=2;fillColor=none;" parent="1" vertex="1">
                    <mxGeometry x="432.5" y="1150" width="150" height="60" as="geometry"/>
                </mxCell>
                <mxCell id="33" value="rlassoEffects.formula" style="whiteSpace=wrap;html=1;fontSize=15;strokeColor=#66FF66;strokeWidth=1;fillColor=none;dashed=1;" parent="1" vertex="1">
                    <mxGeometry x="660" y="1450" width="157.5" height="50" as="geometry"/>
                </mxCell>
                <mxCell id="35" value="print.rlassoeffects" style="whiteSpace=wrap;html=1;fontSize=15;strokeColor=#66FF66;strokeWidth=1;fillColor=none;dashed=1;" parent="1" vertex="1">
                    <mxGeometry x="660" y="960" width="157.5" height="60" as="geometry"/>
                </mxCell>
                <mxCell id="37" value="confint.rlassoEffects" style="whiteSpace=wrap;html=1;fontSize=15;strokeColor=#66FF66;strokeWidth=1;fillColor=none;dashed=1;" parent="1" vertex="1">
                    <mxGeometry x="660" y="1240" width="157.5" height="60" as="geometry"/>
                </mxCell>
                <mxCell id="38" value="plot.rlassoeffects" style="whiteSpace=wrap;html=1;fontSize=15;strokeColor=#66FF66;strokeWidth=1;fillColor=none;" parent="1" vertex="1">
                    <mxGeometry x="660" y="1310" width="157.5" height="60" as="geometry"/>
                </mxCell>
                <mxCell id="39" value="summary.rlassoEffects" style="whiteSpace=wrap;html=1;fontSize=15;strokeColor=#66FF66;strokeWidth=1;fillColor=none;dashed=1;" parent="1" vertex="1">
                    <mxGeometry x="660" y="1100" width="157.5" height="60" as="geometry"/>
                </mxCell>
                <mxCell id="40" value="print.summary.&lt;br&gt;rlassoEffects" style="whiteSpace=wrap;html=1;fontSize=15;strokeColor=#66FF66;strokeWidth=1;fillColor=none;dashed=1;" parent="1" vertex="1">
                    <mxGeometry x="660" y="1030" width="157.5" height="60" as="geometry"/>
                </mxCell>
                <mxCell id="41" value="coef.rlassoEffects" style="whiteSpace=wrap;html=1;fontSize=15;strokeColor=#66FF66;strokeWidth=1;fillColor=none;dashed=1;" parent="1" vertex="1">
                    <mxGeometry x="660" y="1380" width="157.5" height="60" as="geometry"/>
                </mxCell>
                <mxCell id="42" value="print_coef.rlassoEffects" style="whiteSpace=wrap;html=1;fontSize=15;strokeColor=#66FF66;strokeWidth=1;fillColor=none;dashed=1;" parent="1" vertex="1">
                    <mxGeometry x="660" y="1170" width="157.5" height="60" as="geometry"/>
                </mxCell>
                <mxCell id="44" value="rlassoIV" style="whiteSpace=wrap;html=1;fontSize=15;strokeColor=#6666FF;strokeWidth=2;fillColor=none;gradientColor=#333AFF;gradientDirection=north;" parent="1" vertex="1">
                    <mxGeometry x="-60" y="410" width="120" height="60" as="geometry"/>
                </mxCell>
                <mxCell id="45" value="rlassoIV.default" style="whiteSpace=wrap;html=1;fontSize=15;strokeColor=#6666FF;strokeWidth=2;fillColor=none;gradientColor=#333AFF;gradientDirection=north;" parent="1" vertex="1">
                    <mxGeometry x="-60" y="350" width="120" height="60" as="geometry"/>
                </mxCell>
                <mxCell id="46" value="rlassoIV.formula" style="whiteSpace=wrap;html=1;fontSize=15;strokeColor=#6666FF;strokeWidth=2;fillColor=none;gradientColor=#333AFF;gradientDirection=north;dashed=1;" parent="1" vertex="1">
                    <mxGeometry x="-240" y="510" width="120" height="60" as="geometry"/>
                </mxCell>
                <mxCell id="47" value="print.rlassoIV" style="whiteSpace=wrap;html=1;fontSize=15;strokeColor=#6666FF;strokeWidth=2;fillColor=none;gradientColor=#333AFF;gradientDirection=north;dashed=1;" parent="1" vertex="1">
                    <mxGeometry x="-240" y="440" width="120" height="60" as="geometry"/>
                </mxCell>
                <mxCell id="48" value="summary.rlassoIV" style="whiteSpace=wrap;html=1;fontSize=15;strokeColor=#6666FF;strokeWidth=2;fillColor=none;gradientColor=#333AFF;gradientDirection=north;dashed=1;" parent="1" vertex="1">
                    <mxGeometry x="-240" y="300" width="120" height="60" as="geometry"/>
                </mxCell>
                <mxCell id="49" value="confint.rlassoIV" style="whiteSpace=wrap;html=1;fontSize=15;strokeColor=#6666FF;strokeWidth=2;fillColor=none;gradientColor=#333AFF;gradientDirection=north;dashed=1;" parent="1" vertex="1">
                    <mxGeometry x="-240" y="370" width="120" height="60" as="geometry"/>
                </mxCell>
                <mxCell id="50" value="rlassoIVmult" style="whiteSpace=wrap;html=1;fontSize=15;strokeColor=#6666FF;strokeWidth=2;fillColor=none;gradientColor=#333AFF;gradientDirection=north;" parent="1" vertex="1">
                    <mxGeometry x="-60" y="480" width="120" height="60" as="geometry"/>
                </mxCell>
                <mxCell id="52" value="rlassoIVselectX" style="whiteSpace=wrap;html=1;fontSize=15;strokeColor=none;strokeWidth=2;fillColor=#336600;gradientColor=none;gradientDirection=north;" parent="1" vertex="1">
                    <mxGeometry x="-60" y="740" width="150" height="60" as="geometry"/>
                </mxCell>
                <mxCell id="53" value="rlassoIVselectX.default" style="whiteSpace=wrap;html=1;fontSize=15;strokeColor=none;strokeWidth=2;fillColor=#336600;gradientColor=none;gradientDirection=north;" parent="1" vertex="1">
                    <mxGeometry x="-60" y="680" width="150" height="60" as="geometry"/>
                </mxCell>
                <mxCell id="54" value="rlassoIVselectX.formula" style="whiteSpace=wrap;html=1;fontSize=15;strokeColor=#6666FF;strokeWidth=2;fillColor=none;gradientColor=#333AFF;gradientDirection=north;dashed=1;perimeterSpacing=3;" parent="1" vertex="1">
                    <mxGeometry x="-310" y="670" width="170" height="60" as="geometry"/>
                </mxCell>
                <mxCell id="55" value="print.rlassoIVselectX" style="whiteSpace=wrap;html=1;fontSize=15;strokeColor=#6666FF;strokeWidth=2;fillColor=none;gradientColor=#333AFF;gradientDirection=north;dashed=1;perimeterSpacing=3;" parent="1" vertex="1">
                    <mxGeometry x="-310" y="810" width="170" height="60" as="geometry"/>
                </mxCell>
                <mxCell id="56" value="summary.rlassoIVselectX" style="whiteSpace=wrap;html=1;fontSize=15;strokeColor=#6666FF;strokeWidth=2;fillColor=none;gradientColor=#333AFF;gradientDirection=north;dashed=1;perimeterSpacing=3;" parent="1" vertex="1">
                    <mxGeometry x="-310" y="740" width="170" height="60" as="geometry"/>
                </mxCell>
                <mxCell id="57" value="confint.rlassoIVselectX" style="whiteSpace=wrap;html=1;fontSize=15;strokeColor=#6666FF;strokeWidth=2;fillColor=none;gradientColor=#333AFF;gradientDirection=north;dashed=1;perimeterSpacing=3;" parent="1" vertex="1">
                    <mxGeometry x="-310" y="880" width="170" height="60" as="geometry"/>
                </mxCell>
                <mxCell id="59" value="rlassologit" style="whiteSpace=wrap;html=1;fontSize=15;fontColor=#FFFFFF;strokeColor=#6666FF;strokeWidth=2;fillColor=none;gradientColor=#333AFF;gradientDirection=north;" parent="1" vertex="1">
                    <mxGeometry x="-140" y="1100" width="120" height="60" as="geometry"/>
                </mxCell>
                <mxCell id="60" value="rlassologit.formula" style="whiteSpace=wrap;html=1;fontSize=15;fontColor=#FFFFFF;strokeColor=#6666FF;strokeWidth=2;fillColor=none;gradientColor=#333AFF;gradientDirection=north;dashed=1;" parent="1" vertex="1">
                    <mxGeometry x="-320" y="1150" width="140" height="60" as="geometry"/>
                </mxCell>
                <mxCell id="61" value="rlassologit.character" style="whiteSpace=wrap;html=1;fontSize=15;fontColor=#FFFFFF;strokeColor=#6666FF;strokeWidth=2;fillColor=none;gradientColor=#333AFF;gradientDirection=north;" parent="1" vertex="1">
                    <mxGeometry x="-140" y="1160" width="150" height="60" as="geometry"/>
                </mxCell>
                <mxCell id="62" value="rlasso.default" style="whiteSpace=wrap;html=1;fontSize=15;fontColor=#FFFFFF;strokeColor=#6666FF;strokeWidth=2;fillColor=none;gradientColor=#333AFF;gradientDirection=north;" parent="1" vertex="1">
                    <mxGeometry x="-140" y="1220" width="120" height="60" as="geometry"/>
                </mxCell>
                <mxCell id="63" value="predict.rlassologit" style="whiteSpace=wrap;html=1;fontSize=15;fontColor=#FFFFFF;strokeColor=#6666FF;strokeWidth=2;fillColor=none;gradientColor=#333AFF;gradientDirection=north;dashed=1;" parent="1" vertex="1">
                    <mxGeometry x="-320" y="1080" width="140" height="60" as="geometry"/>
                </mxCell>
                <mxCell id="64" value="model.matrix.rlassologit" style="whiteSpace=wrap;html=1;fontSize=15;fontColor=#FFFFFF;strokeColor=#6666FF;strokeWidth=2;fillColor=none;gradientColor=#333AFF;gradientDirection=north;" parent="1" vertex="1">
                    <mxGeometry x="-140" y="1280" width="170" height="60" as="geometry"/>
                </mxCell>
                <mxCell id="65" value="print.rlassologit" style="whiteSpace=wrap;html=1;fontSize=15;fontColor=#FFFFFF;strokeColor=#6666FF;strokeWidth=2;fillColor=none;gradientColor=#333AFF;gradientDirection=north;dashed=1;" parent="1" vertex="1">
                    <mxGeometry x="-320" y="1220" width="140" height="60" as="geometry"/>
                </mxCell>
                <mxCell id="66" value="summary.rlassologit" style="whiteSpace=wrap;html=1;fontSize=15;fontColor=#FFFFFF;strokeColor=#6666FF;strokeWidth=2;fillColor=none;gradientColor=#333AFF;gradientDirection=north;dashed=1;" parent="1" vertex="1">
                    <mxGeometry x="-320" y="1290" width="140" height="60" as="geometry"/>
                </mxCell>
                <mxCell id="68" value="rlassologitEffects.default&lt;br&gt;" style="whiteSpace=wrap;html=1;fontSize=15;fontColor=#FFFFFF;strokeColor=#6666FF;strokeWidth=2;fillColor=none;gradientColor=#333AFF;gradientDirection=north;" parent="1" vertex="1">
                    <mxGeometry x="-40" y="1460" width="170" height="60" as="geometry"/>
                </mxCell>
                <mxCell id="69" value="rlassologitEffects.formula" style="whiteSpace=wrap;html=1;fontSize=15;fontColor=#FFFFFF;strokeColor=#6666FF;strokeWidth=2;fillColor=none;gradientColor=#333AFF;gradientDirection=north;dashed=1;" parent="1" vertex="1">
                    <mxGeometry x="-330" y="1430" width="180" height="60" as="geometry"/>
                </mxCell>
                <mxCell id="70" value="rlassologitEffect" style="whiteSpace=wrap;html=1;fontSize=15;fontColor=#FFFFFF;strokeColor=#6666FF;strokeWidth=2;fillColor=none;gradientColor=#333AFF;gradientDirection=north;" parent="1" vertex="1">
                    <mxGeometry x="-40" y="1520" width="170" height="60" as="geometry"/>
                </mxCell>
                <mxCell id="71" value="print.rlassologitEffects" style="whiteSpace=wrap;html=1;fontSize=15;fontColor=#FFFFFF;strokeColor=#6666FF;strokeWidth=2;fillColor=none;gradientColor=#333AFF;gradientDirection=north;dashed=1;" parent="1" vertex="1">
                    <mxGeometry x="-330" y="1500" width="180" height="60" as="geometry"/>
                </mxCell>
                <mxCell id="72" value="summary.rlassologitEffects" style="whiteSpace=wrap;html=1;fontSize=15;fontColor=#FFFFFF;strokeColor=#6666FF;strokeWidth=2;fillColor=none;gradientColor=#333AFF;gradientDirection=north;dashed=1;" parent="1" vertex="1">
                    <mxGeometry x="-330" y="1575" width="180" height="60" as="geometry"/>
                </mxCell>
                <mxCell id="73" value="confint.rlassoligtEffects" style="whiteSpace=wrap;html=1;fontSize=15;fontColor=#FFFFFF;strokeColor=#6666FF;strokeWidth=2;fillColor=none;gradientColor=#333AFF;gradientDirection=north;dashed=1;" parent="1" vertex="1">
                    <mxGeometry x="-330" y="1650" width="180" height="60" as="geometry"/>
                </mxCell>
                <mxCell id="76" value="rlassoATE" style="whiteSpace=wrap;html=1;fontSize=15;fontColor=#FFFFFF;strokeColor=#6666FF;strokeWidth=2;fillColor=none;gradientColor=#333AFF;gradientDirection=north;" parent="1" vertex="1">
                    <mxGeometry x="425" y="1695" width="120" height="60" as="geometry"/>
                </mxCell>
                <mxCell id="77" value="rlassoATE.default" style="whiteSpace=wrap;html=1;fontSize=15;fontColor=#FFFFFF;strokeColor=#6666FF;strokeWidth=2;fillColor=none;gradientColor=#333AFF;gradientDirection=north;" parent="1" vertex="1">
                    <mxGeometry x="425" y="1755" width="130" height="60" as="geometry"/>
                </mxCell>
                <mxCell id="78" value="rlassoATE.formula" style="whiteSpace=wrap;html=1;fontSize=15;fontColor=#FFFFFF;strokeColor=#6666FF;strokeWidth=2;fillColor=none;gradientColor=#333AFF;gradientDirection=north;" parent="1" vertex="1">
                    <mxGeometry x="425" y="1635" width="120" height="60" as="geometry"/>
                </mxCell>
                <mxCell id="79" value="rlassoATET.default" style="whiteSpace=wrap;html=1;fontSize=15;fontColor=#FFFFFF;strokeColor=#6666FF;strokeWidth=2;fillColor=none;gradientColor=#333AFF;gradientDirection=north;" parent="1" vertex="1">
                    <mxGeometry x="425" y="1835" width="130" height="60" as="geometry"/>
                </mxCell>
                <mxCell id="80" value="rlassoATET.default" style="whiteSpace=wrap;html=1;fontSize=15;fontColor=#FFFFFF;strokeColor=#6666FF;strokeWidth=2;fillColor=none;gradientColor=#333AFF;gradientDirection=north;" parent="1" vertex="1">
                    <mxGeometry x="425" y="1895" width="130" height="60" as="geometry"/>
                </mxCell>
                <mxCell id="81" value="rlassoATET.formula" style="whiteSpace=wrap;html=1;fontSize=15;fontColor=#FFFFFF;strokeColor=#6666FF;strokeWidth=2;fillColor=none;gradientColor=#333AFF;gradientDirection=north;" parent="1" vertex="1">
                    <mxGeometry x="425" y="1955" width="130" height="60" as="geometry"/>
                </mxCell>
                <mxCell id="82" value="rlassoLATE" style="whiteSpace=wrap;html=1;fontSize=15;fontColor=#FFFFFF;strokeColor=#6666FF;strokeWidth=2;fillColor=none;gradientColor=#333AFF;gradientDirection=north;" parent="1" vertex="1">
                    <mxGeometry x="630" y="1635" width="140" height="60" as="geometry"/>
                </mxCell>
                <mxCell id="83" value="rlassoLATE.default" style="whiteSpace=wrap;html=1;fontSize=15;fontColor=#FFFFFF;strokeColor=#6666FF;strokeWidth=2;fillColor=none;gradientColor=#333AFF;gradientDirection=north;" parent="1" vertex="1">
                    <mxGeometry x="630" y="1695" width="140" height="60" as="geometry"/>
                </mxCell>
                <mxCell id="84" value="rlassoLATE.formula" style="whiteSpace=wrap;html=1;fontSize=15;fontColor=#FFFFFF;strokeColor=#6666FF;strokeWidth=2;fillColor=none;gradientColor=#333AFF;gradientDirection=north;" parent="1" vertex="1">
                    <mxGeometry x="630" y="1755" width="140" height="60" as="geometry"/>
                </mxCell>
                <mxCell id="85" value="rlassoLATET." style="whiteSpace=wrap;html=1;fontSize=15;fontColor=#FFFFFF;strokeColor=#6666FF;strokeWidth=2;fillColor=none;gradientColor=#333AFF;gradientDirection=north;" parent="1" vertex="1">
                    <mxGeometry x="630" y="1845" width="140" height="60" as="geometry"/>
                </mxCell>
                <mxCell id="86" value="rlassoLATET.default" style="whiteSpace=wrap;html=1;fontSize=15;fontColor=#FFFFFF;strokeColor=#6666FF;strokeWidth=2;fillColor=none;gradientColor=#333AFF;gradientDirection=north;" parent="1" vertex="1">
                    <mxGeometry x="630" y="1905" width="140" height="60" as="geometry"/>
                </mxCell>
                <mxCell id="87" value="rlassoLATET.formula" style="whiteSpace=wrap;html=1;fontSize=15;fontColor=#FFFFFF;strokeColor=#6666FF;strokeWidth=2;fillColor=none;gradientColor=#333AFF;gradientDirection=north;" parent="1" vertex="1">
                    <mxGeometry x="630" y="1965" width="140" height="60" as="geometry"/>
                </mxCell>
                <mxCell id="88" value="print.rlassoTE" style="whiteSpace=wrap;html=1;fontSize=15;fontColor=#FFFFFF;strokeColor=#6666FF;strokeWidth=2;fillColor=none;gradientColor=#333AFF;gradientDirection=north;" parent="1" vertex="1">
                    <mxGeometry x="245" y="1715" width="125" height="60" as="geometry"/>
                </mxCell>
                <mxCell id="89" value="summary.rlassoTE" style="whiteSpace=wrap;html=1;fontSize=15;fontColor=#FFFFFF;strokeColor=#6666FF;strokeWidth=2;fillColor=none;gradientColor=#333AFF;gradientDirection=north;" parent="1" vertex="1">
                    <mxGeometry x="245" y="1775" width="125" height="60" as="geometry"/>
                </mxCell>
                <mxCell id="90" value="confint.rlassoTE" style="whiteSpace=wrap;html=1;fontSize=15;fontColor=#FFFFFF;strokeColor=#6666FF;strokeWidth=2;fillColor=none;gradientColor=#333AFF;gradientDirection=north;" parent="1" vertex="1">
                    <mxGeometry x="245" y="1835" width="125" height="60" as="geometry"/>
                </mxCell>
                <mxCell id="102" style="edgeStyle=none;html=1;exitX=0;exitY=0.5;exitDx=0;exitDy=0;entryX=0;entryY=0.5;entryDx=0;entryDy=0;" parent="1" source="94" target="53" edge="1">
                    <mxGeometry relative="1" as="geometry">
                        <Array as="points">
                            <mxPoint x="270" y="440"/>
                            <mxPoint x="-80" y="630"/>
                        </Array>
                    </mxGeometry>
                </mxCell>
                <mxCell id="94" value="tsls" style="whiteSpace=wrap;html=1;fontSize=15;fontColor=#FFFFFF;strokeColor=none;strokeWidth=2;fillColor=#336600;gradientColor=none;gradientDirection=north;" parent="1" vertex="1">
                    <mxGeometry x="610" y="340" width="120" height="60" as="geometry"/>
                </mxCell>
                <mxCell id="95" value="tsls.default" style="whiteSpace=wrap;html=1;fontSize=15;fontColor=#FFFFFF;strokeColor=none;strokeWidth=2;fillColor=#336600;gradientColor=none;gradientDirection=north;" parent="1" vertex="1">
                    <mxGeometry x="610" y="400" width="120" height="60" as="geometry"/>
                </mxCell>
                <mxCell id="96" value="tsls.formula" style="whiteSpace=wrap;html=1;fontSize=15;fontColor=#FFFFFF;strokeColor=#6666FF;strokeWidth=2;fillColor=none;gradientColor=#333AFF;gradientDirection=north;dashed=1;" parent="1" vertex="1">
                    <mxGeometry x="760" y="370" width="120" height="60" as="geometry"/>
                </mxCell>
                <mxCell id="97" value="print.tsls" style="whiteSpace=wrap;html=1;fontSize=15;fontColor=#FFFFFF;strokeColor=#6666FF;strokeWidth=2;fillColor=none;gradientColor=#333AFF;gradientDirection=north;dashed=1;" parent="1" vertex="1">
                    <mxGeometry x="760" y="440" width="120" height="60" as="geometry"/>
                </mxCell>
                <mxCell id="98" value="summary.tsls" style="whiteSpace=wrap;html=1;fontSize=15;fontColor=#FFFFFF;strokeColor=#6666FF;strokeWidth=2;fillColor=none;gradientColor=#333AFF;gradientDirection=north;dashed=1;" parent="1" vertex="1">
                    <mxGeometry x="760" y="300" width="120" height="60" as="geometry"/>
                </mxCell>
                <mxCell id="112" value="&lt;h3&gt;confint&lt;/h3&gt;" style="whiteSpace=wrap;html=1;" parent="1" vertex="1">
                    <mxGeometry x="-180" y="-280" width="210" height="90" as="geometry"/>
                </mxCell>
                <mxCell id="147" style="edgeStyle=none;html=1;exitX=0;exitY=0.5;exitDx=0;exitDy=0;entryX=0;entryY=0.75;entryDx=0;entryDy=0;dashed=1;strokeColor=#FFFFFF;strokeWidth=2;" parent="1" source="113" target="141" edge="1">
                    <mxGeometry relative="1" as="geometry">
                        <Array as="points">
                            <mxPoint x="1220" y="330"/>
                            <mxPoint x="1220" y="505"/>
                        </Array>
                    </mxGeometry>
                </mxCell>
                <mxCell id="113" value="rlassoIVselectX" style="whiteSpace=wrap;html=1;fontSize=15;strokeColor=default;strokeWidth=4;fillColor=#336600;gradientColor=none;gradientDirection=north;" parent="1" vertex="1">
                    <mxGeometry x="1300" y="300" width="150" height="60" as="geometry"/>
                </mxCell>
                <mxCell id="135" style="edgeStyle=none;html=1;exitX=0;exitY=0.5;exitDx=0;exitDy=0;entryX=1;entryY=0.5;entryDx=0;entryDy=0;" parent="1" source="114" target="113" edge="1">
                    <mxGeometry relative="1" as="geometry">
                        <Array as="points">
                            <mxPoint x="1840" y="370"/>
                            <mxPoint x="1830" y="330"/>
                        </Array>
                    </mxGeometry>
                </mxCell>
                <mxCell id="142" style="edgeStyle=none;html=1;exitX=0;exitY=0.75;exitDx=0;exitDy=0;entryX=1;entryY=0.75;entryDx=0;entryDy=0;dashed=1;dashPattern=1 1;strokeColor=#FFFFFF;strokeWidth=3;" parent="1" source="114" target="141" edge="1">
                    <mxGeometry relative="1" as="geometry">
                        <Array as="points">
                            <mxPoint x="1870" y="385"/>
                            <mxPoint x="1870" y="505"/>
                        </Array>
                    </mxGeometry>
                </mxCell>
                <mxCell id="114" value="tsls" style="whiteSpace=wrap;html=1;fontSize=15;fontColor=#FFFFFF;strokeColor=default;strokeWidth=5;fillColor=#336600;gradientColor=none;gradientDirection=north;" parent="1" vertex="1">
                    <mxGeometry x="1920" y="340" width="120" height="60" as="geometry"/>
                </mxCell>
                <mxCell id="145" style="edgeStyle=none;html=1;exitX=1;exitY=0.5;exitDx=0;exitDy=0;entryX=0;entryY=0.5;entryDx=0;entryDy=0;dashed=1;strokeWidth=3;" parent="1" source="116" target="117" edge="1">
                    <mxGeometry relative="1" as="geometry">
                        <Array as="points">
                            <mxPoint x="1570" y="135"/>
                            <mxPoint x="1570" y="150"/>
                        </Array>
                    </mxGeometry>
                </mxCell>
                <mxCell id="116" value="&lt;span class=&quot;pl-en&quot;&gt;LassoShooting.fit&lt;/span&gt;" style="whiteSpace=wrap;html=1;fontSize=15;strokeColor=#336600;fillColor=#336600;strokeWidth=5;" parent="1" vertex="1">
                    <mxGeometry x="1310" y="110" width="140" height="50" as="geometry"/>
                </mxCell>
                <mxCell id="139" style="edgeStyle=none;html=1;exitX=0.5;exitY=1;exitDx=0;exitDy=0;entryX=1;entryY=0.25;entryDx=0;entryDy=0;" parent="1" source="117" target="113" edge="1">
                    <mxGeometry relative="1" as="geometry">
                        <Array as="points">
                            <mxPoint x="1785" y="315"/>
                        </Array>
                    </mxGeometry>
                </mxCell>
                <mxCell id="144" style="edgeStyle=none;html=1;exitX=0.75;exitY=1;exitDx=0;exitDy=0;entryX=1;entryY=0.25;entryDx=0;entryDy=0;" parent="1" source="117" target="143" edge="1">
                    <mxGeometry relative="1" as="geometry">
                        <Array as="points">
                            <mxPoint x="1815" y="395"/>
                        </Array>
                    </mxGeometry>
                </mxCell>
                <mxCell id="146" style="edgeStyle=none;html=1;exitX=0.25;exitY=1;exitDx=0;exitDy=0;entryX=1;entryY=0.5;entryDx=0;entryDy=0;dashed=1;strokeColor=#FFFFFF;strokeWidth=3;" parent="1" source="117" target="141" edge="1">
                    <mxGeometry relative="1" as="geometry">
                        <Array as="points">
                            <mxPoint x="1755" y="490"/>
                        </Array>
                    </mxGeometry>
                </mxCell>
                <mxCell id="173" style="edgeStyle=none;rounded=0;html=1;exitX=1;exitY=0.75;exitDx=0;exitDy=0;entryX=0;entryY=0.75;entryDx=0;entryDy=0;dashed=1;strokeColor=#FFFFFF;strokeWidth=2;" parent="1" source="117" target="122" edge="1">
                    <mxGeometry relative="1" as="geometry"/>
                </mxCell>
                <mxCell id="174" style="edgeStyle=none;rounded=0;html=1;exitX=1;exitY=0.25;exitDx=0;exitDy=0;entryX=0.5;entryY=1;entryDx=0;entryDy=0;dashed=1;strokeColor=#FFFFFF;strokeWidth=2;" parent="1" source="117" target="124" edge="1">
                    <mxGeometry relative="1" as="geometry"/>
                </mxCell>
                <mxCell id="180" style="edgeStyle=none;rounded=0;html=1;exitX=1;exitY=0;exitDx=0;exitDy=0;entryX=0;entryY=0.5;entryDx=0;entryDy=0;dashed=1;strokeColor=#FFFFFF;strokeWidth=2;" parent="1" source="117" target="125" edge="1">
                    <mxGeometry relative="1" as="geometry"/>
                </mxCell>
                <mxCell id="182" style="edgeStyle=none;rounded=0;html=1;exitX=1;exitY=1;exitDx=0;exitDy=0;entryX=0;entryY=0.5;entryDx=0;entryDy=0;dashed=1;strokeColor=#FFFFFF;strokeWidth=2;" parent="1" source="117" target="120" edge="1">
                    <mxGeometry relative="1" as="geometry"/>
                </mxCell>
                <mxCell id="117" value="rlasso" style="whiteSpace=wrap;html=1;fontSize=15;strokeColor=#FFFFFF;strokeWidth=5;fillColor=#0050ef;fontColor=#ffffff;" parent="1" vertex="1">
                    <mxGeometry x="1725" y="120" width="120" height="60" as="geometry"/>
                </mxCell>
                <mxCell id="134" style="edgeStyle=none;html=1;exitX=0.5;exitY=1;exitDx=0;exitDy=0;entryX=0.5;entryY=0;entryDx=0;entryDy=0;dashed=1;strokeWidth=3;" parent="1" source="118" target="117" edge="1">
                    <mxGeometry relative="1" as="geometry"/>
                </mxCell>
                <mxCell id="118" value="lambdaCalculation" style="whiteSpace=wrap;html=1;fontSize=15;strokeColor=#F0F0F0;strokeWidth=4;fillColor=#0050ef;fontColor=#ffffff;" parent="1" vertex="1">
                    <mxGeometry x="1705" y="10" width="160" height="60" as="geometry"/>
                </mxCell>
                <mxCell id="120" value="rlassoEffects" style="whiteSpace=wrap;html=1;fontSize=15;strokeColor=#66FF66;strokeWidth=2;fillColor=none;" parent="1" vertex="1">
                    <mxGeometry x="2120" y="270" width="150" height="70" as="geometry"/>
                </mxCell>
                <mxCell id="177" style="edgeStyle=none;rounded=0;html=1;exitX=1;exitY=0.5;exitDx=0;exitDy=0;entryX=0;entryY=0.5;entryDx=0;entryDy=0;dashed=1;strokeColor=#FFFFFF;strokeWidth=2;" parent="1" source="121" target="124" edge="1">
                    <mxGeometry relative="1" as="geometry"/>
                </mxCell>
                <mxCell id="181" style="edgeStyle=none;rounded=0;html=1;exitX=1;exitY=0.25;exitDx=0;exitDy=0;entryX=0;entryY=0.75;entryDx=0;entryDy=0;dashed=1;strokeColor=#FFFFFF;strokeWidth=2;" parent="1" source="121" target="125" edge="1">
                    <mxGeometry relative="1" as="geometry"/>
                </mxCell>
                <mxCell id="121" value="rlassologit" style="whiteSpace=wrap;html=1;fontSize=15;fontColor=#FFFFFF;strokeColor=#6666FF;strokeWidth=2;fillColor=none;gradientColor=#333AFF;gradientDirection=north;" parent="1" vertex="1">
                    <mxGeometry x="1370" y="-140" width="120" height="60" as="geometry"/>
                </mxCell>
                <mxCell id="122" value="rlassologitEffect" style="whiteSpace=wrap;html=1;fontSize=15;fontColor=#FFFFFF;strokeColor=#6666FF;strokeWidth=2;fillColor=none;gradientColor=#333AFF;gradientDirection=north;" parent="1" vertex="1">
                    <mxGeometry x="2150" y="155" width="170" height="60" as="geometry"/>
                </mxCell>
                <mxCell id="123" value="rlassoATE" style="whiteSpace=wrap;html=1;fontSize=15;fontColor=#FFFFFF;strokeColor=#6666FF;strokeWidth=2;fillColor=none;gradientColor=#333AFF;gradientDirection=north;" parent="1" vertex="1">
                    <mxGeometry x="2270" y="-100" width="120" height="60" as="geometry"/>
                </mxCell>
                <mxCell id="179" style="edgeStyle=none;rounded=0;html=1;exitX=1;exitY=0.5;exitDx=0;exitDy=0;entryX=0;entryY=0.5;entryDx=0;entryDy=0;dashed=1;strokeColor=#FFFFFF;strokeWidth=2;" parent="1" source="124" target="123" edge="1">
                    <mxGeometry relative="1" as="geometry"/>
                </mxCell>
                <mxCell id="124" value="rlassoLATE" style="whiteSpace=wrap;html=1;fontSize=15;fontColor=#FFFFFF;strokeColor=#6666FF;strokeWidth=2;fillColor=none;gradientColor=#333AFF;gradientDirection=north;" parent="1" vertex="1">
                    <mxGeometry x="2040" y="-100" width="140" height="60" as="geometry"/>
                </mxCell>
                <mxCell id="178" style="edgeStyle=none;rounded=0;html=1;exitX=1;exitY=0.5;exitDx=0;exitDy=0;entryX=0;entryY=0.5;entryDx=0;entryDy=0;dashed=1;strokeColor=#FFFFFF;strokeWidth=2;" parent="1" source="125" target="168" edge="1">
                    <mxGeometry relative="1" as="geometry"/>
                </mxCell>
                <mxCell id="125" value="rlassoLATET." style="whiteSpace=wrap;html=1;fontSize=15;fontColor=#FFFFFF;strokeColor=#6666FF;strokeWidth=2;fillColor=none;gradientColor=#333AFF;gradientDirection=north;" parent="1" vertex="1">
                    <mxGeometry x="2045" y="-190" width="140" height="60" as="geometry"/>
                </mxCell>
                <mxCell id="130" style="edgeStyle=none;html=1;exitX=0.25;exitY=1;exitDx=0;exitDy=0;entryX=0.5;entryY=0;entryDx=0;entryDy=0;dashed=1;" parent="1" source="128" target="116" edge="1">
                    <mxGeometry relative="1" as="geometry"/>
                </mxCell>
                <mxCell id="140" style="edgeStyle=none;html=1;exitX=0.5;exitY=1;exitDx=0;exitDy=0;entryX=0.25;entryY=0;entryDx=0;entryDy=0;fillColor=#008a00;strokeColor=#FFFFFF;strokeWidth=3;dashed=1;" parent="1" source="128" target="117" edge="1">
                    <mxGeometry relative="1" as="geometry">
                        <Array as="points">
                            <mxPoint x="1460" y="90"/>
                            <mxPoint x="1700" y="90"/>
                        </Array>
                    </mxGeometry>
                </mxCell>
                <mxCell id="128" value="init_values" style="whiteSpace=wrap;html=1;fontSize=15;dashed=1;dashPattern=1 1;strokeColor=#d6b656;strokeWidth=5;fillColor=#336600;" parent="1" vertex="1">
                    <mxGeometry x="1350" width="120" height="60" as="geometry"/>
                </mxCell>
                <mxCell id="141" value="rlassoIV" style="whiteSpace=wrap;html=1;fontSize=15;strokeColor=#FFFFFF;strokeWidth=2;fillColor=none;gradientDirection=north;fontColor=#ffffff;" parent="1" vertex="1">
                    <mxGeometry x="1300" y="460" width="150" height="60" as="geometry"/>
                </mxCell>
                <mxCell id="148" style="edgeStyle=none;html=1;exitX=0;exitY=0.25;exitDx=0;exitDy=0;entryX=0;entryY=0.5;entryDx=0;entryDy=0;dashed=1;strokeColor=#FFFFFF;strokeWidth=2;" parent="1" source="143" target="141" edge="1">
                    <mxGeometry relative="1" as="geometry">
                        <Array as="points">
                            <mxPoint x="1250" y="395"/>
                            <mxPoint x="1250" y="490"/>
                        </Array>
                    </mxGeometry>
                </mxCell>
                <mxCell id="143" value="rlassoIVselectZ" style="whiteSpace=wrap;html=1;fontSize=15;strokeWidth=2;gradientDirection=north;fillColor=none;" parent="1" vertex="1">
                    <mxGeometry x="1300" y="380" width="150" height="60" as="geometry"/>
                </mxCell>
                <mxCell id="150" style="edgeStyle=none;html=1;exitX=0.25;exitY=1;exitDx=0;exitDy=0;entryX=0;entryY=0.5;entryDx=0;entryDy=0;strokeColor=#FFFFFF;strokeWidth=3;rounded=0;" parent="1" source="149" target="143" edge="1">
                    <mxGeometry relative="1" as="geometry">
                        <Array as="points">
                            <mxPoint x="1006" y="410"/>
                        </Array>
                    </mxGeometry>
                </mxCell>
                <mxCell id="149" value="" style="shape=image;verticalLabelPosition=bottom;labelBackgroundColor=#ffffff;verticalAlign=top;aspect=fixed;imageAspect=0;image=data:image/png,iVBORw0KGgoAAAANSUhEUgAAAS8AAAAwCAYAAABAKfwiAAAAAXNSR0IArs4c6QAAAARnQU1BAACxjwv8YQUAAAAJcEhZcwAADsMAAA7DAcdvqGQAAA6SSURBVHhe7ZxrcBRVFsf/Ez9sbcXVcsvMoEVCEAxFJpPVQhCC5Dlk4xbKByDksVCAK5KsWvBhEVBQiQbkC6zLEmRdQamQiPBhFZcIhDwwIA9LzYs1Qp7UYmZS5WJV+Oqe23170tMz3dMzmUzocH9VXczt26f7nHtPn3vumSG23zzg+AUCgUBgMeL4vwKBQGApRPASCASWZAIHLweyX96AbAdvmiZSuWiSjmUVpXDyljWxmg3CX8aX8G2451e/vvcN/jnGsEl/DSsXuZGVOwlDDW3w8p5o4Cx6DbN7/4FP2ob5GQYbIDdsBs8KkHOVYttLJaQj01Ora+j76WMkO4jOoXSUFU3C1YvdUFugi2Mhyjc9j6dz02Hr/Aq9w/L4zr5dj04Pv4Y98+V0DKnvaUrODFp7rGWD8JdY+4uW8G2IW+bin2LOIBrf3YztW2twlZ+JGuRAS1CDffWD/IRJ9OQ6akhPputm7G+0Y0ksVrm2ahz35CLL5Pw4c3LhPUo6HvUgMycd9rwSpHbsoZeK9TIH24HyPMDbMYiEoh3YVpRuQm6UWMUG4S+W9Jd7rv0chczLF43l1cYZ147LPTx2avrsQ9oI7YAz1wGvekWRZObhtu+cNrqzVWg9lurc05lbAlvHEf9zNAFly11IgB2pXC7L4UVT+4jjBZODIx1Zdo/vuuGeHthczyJZ0kXWHXFurFyzOEAX+Zn8Wao+M7owvLZJWJpjbiWyp7mR4KX709hkpbmQbG/HsdpWLjeM3ov16HukBEuy58LWuBlVZ+VnGcuFwG9umT0eXNVkBne8DYTwlxiMdch3WiYcG6KwbSQlnsuD9+Bb+PCzejQ11I8ELjJw2aa56NvL+zrjkL16MeKldJNfEix4DQ8j3jUX8b38OkcG/pDWg5OfMYOY0fPQt3M3jtGzmhq8cL6kTqfTkb3chs5azUvULl9rz7WheSuX9Zv84HJaZ2QTGz/VjVQbC9D3ku55eGL4U2z/2xHZvkXT0McHXn4mPyTb5cnrCKkLx2ODfdEjqgnXR5r0QtquOO1A/DCuHKxGh2qMmaNkeT/Fld529CWvR1ma7PzGckZo5layRzOPjDvaBobwl5iMtfROK0Gc2uydtn+FD3lQ9BGGDX4Fe3veBmyroBRROsymurRX7QAyX2RppqZq6XJhZkc9GhX9Bk+jqcOOBLLbGPmeqWny/expaZSKt9K6TpBzpCakUSqu6FmMmbQiJYxbwbQdx2nlkRikySXjEuSWtK3wjeeLuXiQnw4Pk7ZRyi1vUzwYamxHAs0He648J/IWfV89kOCkAFNLab+is6GcAdq5NeQOtWFcuEv9hd2zoR0zncr2Mw2dDfyeAZizwS94eep3S4rJB0VUfj4UitwxlMgDz/fHo8FTXw8vGWqnVSDVSStZveot8Z7Ffp+e7Nht8iWKBg4p+Ho9oR5ImUmhHc17FR0jre154DVrG6XmS53taEIaEhr3YPves+QlbAwVWvHJu6flRUBNSLnRMhFsiBThLz7a2nDV6aKkiBIQ2m526uppzoao/lRCCmJkyJDdIRvioejszBv5GpmMzqJA5A0YjWC0UnqZhlQXGeqh1JmflVcro6Ie9XuZHG8GoBfVQ8nJOIvWIxNn0RRmgdJZxDJELSFWGAc5Pg1WqPRZhlL95bSafXza5PUKEcpJc8sckcG2GcHsI+5kGySEv8RurOmd7qAxK6JBawgSFBlh2HDPH+fc+4ZfwTFs/IvnWXPiR/bBw924PDQNK1fTHlnp26tkSYqcqhDpivMr1HltJFv4JPoa1UVR2lJK9YCRLwH85YbRe5v25UGLfoMYipuHJYVysdS/6Kkjx2oYOXny9XSk2ijr861G2nqduj0Im2MxnpZ+CuKGvfMs+pLjVdca6SLjfOZ5xF86gMsm5od9ZZ986S38u5ss6bmN5DXPY+mcqej73Fg+Ujk2t32+wvNc3P68hoKZeixk7mgbJIS/xG6s6Z32sjofxQFtrZATjg0T9v82sm9osrx7wv76O1K5qMPqHzkeleNbEAvZIPwlNrC6+lIcCT5eYdowYX9h31G7B53OkrB/+RypXHRh9Q/guJUDl8VsEP4ytihfBq5LqNcJ9OHbIP6qhEAgsCQT+P82CgSCiYwIXgKBwJKI4CUQCCyJCF4CgcCSiOAlEAgsiQheAoHAkojgJRAILIkIXgKBwJLcfcErpQyHGptRUcDbUSMFaw9XY20Kb5omUrloUoCKxh3I563xZbx0EfMXHWKni7ngNbkCtVU/YtdsdfsC/jyZt4kZiy+gRXNOgsu2KMe6FbyDMOqzGPmV7yOj5U0c6OInJEJPZIBcwQ6coeA6cqjlR+MYRrJ12LoT2Hi4DI/yMxIPuPBteSl+Ll+Edx5gJ+7HO0WlOP6I1MtJwvEiF57kLQlTcgpavcZHFzF/KsKaPy06uowB5jOvwR4kzZKDy4xZQP93UzHlIalJzIb78R689UEPFsxSIhxjBXa96sa5tydhfhk/9h820TeGdFVhVXYmttbxdjQgh92ISqza7+f5odGTO18JN+nIjrLaJGyM2OHDoG4zdg0UY6UqI109Ox3X66pxX93/UDY7CU8+sQC/v3YCS7pZr+zQ3z4BXLt2C6n55Oz5SSbkTBBrXcT8jfn8jQXmg9ePZ3COUuQZFHSee6gL/7zZwzuIyc9iwY8ncfLmdeDxZ+kazuQUius6GPUpSCuAEv016PXxbaF69Tu0juX0LL0Pthoy5FVt7bpqjQwh3U99vXwf9bYzP3M+LjT7R8P8SnafLZiH+eS8/LmV/rMZTE7LD/vfxNGB+VigEk1W6emnh/TMkUPpM6ML41RzC+aV6qyYv03He9P78MKVW/zELbxSW40XkI6yOQuw6Bo5+6l+3qciQI7wmyOmVyAx04UQ8xfGmJl4HxiGukQJc8HroWlIRBfO3JwG9+Knga/9M6QZs9zoZ+dufEoBzg23snW8sRWv09yWvEpbwjcqRoIaw6gvYigIHXgK59fKq557Z4u0CsorYxcOrGDnK3FBvljDfBQmHZbl1tZQM08e+K56nB9IQrJS00jJQwZq8JHPZwuwIKMF5zQ+fGqL8qwW7OKrsHuL+qLgcoF0oXcASPQp4K9nospB5Gfyg/Vtkp0stC6cuiZcSEzCVN48eK0PCwtoRS6YQk4MfPFFGy7yPmXlfg+tqLp0Diemj6zcxnKaOdKbj5jowhDzF9aYSe+DKhiz92GgMnAno9FlLIhbzT+EYuDmf/D919clpRsu85MSbMsI9N1kny/jzDfw2zp+/y9aL2hLuOYbNz7Q1LWM+iR+asNj+07glZ94W41RX0SQYygO0dWDAd/Ad6GBYmBGrux8j+Y+RZfW4wepNR7o6Umo6y0HiqEtP5pDFai7v8R9+6qx8NItdF/qw/RicuhyttW4nzrllfuxK8D06fej85Rq5TaSK8jCvPOHNbUlPcZYl3HB4vPHkoBqyqoy5eiVv4oWokNBAqmESpcxIO4g/2AKypaKykpwkjeTHqYgxbaMjqlyBkUB6IOCqUhUbx05cqD6C1p+Vx5Q1DfqC486nDufiMID3AE2YcRRRsEP+w9jQMrEUpAzvx9Hwq2NjIoUJCfS4tEb6pmU0WxKwtFQGU1I+uH3KNqes23DXzEF0y6dwH01reTtSaoCbz+W1GqzGSKknBnuJF0iZQLOH8uqMrIoK6TsM/FLNOiaptElypjaNs54WD/5Y1tG1D0jZVDyQUHIMQ1Bv5gItwZGAxhWzYv24yWJNShTUuvszTjFu0YHBcWBp5BTwFLkJs09uzGgqWn4o7f6hJKTYd9mFfptU82RXxmslhRiJUyhhWegHyPVTNpa/H6KtG3o5GfMYSDX3Y8bkuMzWL0keM0rJrpIiPkLJJQcSxLI9sosoLoq+C4kQJfoY75gH5SZtGWciv7/qveRh9HwXS5y2M5x9pGRn0GwQ/p2cR7+fiNEX6R0VeHIQDGqlNRbOpTf4LCiPGurCp9hfJ17qrkfhZuKMRBQoOVpdNDiZB0+qsVIJuhXZDWQy9ji038jC8YrdBzED/+ss6S/RrNyG+kik7+K7FM54+r8RZhOqy7bml+80orrcxbh5+J0XL8UZKVWYShHc/S29A0c0+N9JFYHzzBioot0hZg/LWbkTh2qQWIGdGt+Wl3Ggon1l1RZzaC0389Z2Dc1Jf1/Cv9r8DCJ9Dmx0i8kQcZu3BgHXcT8hcej66rxKt4MbneMdJlgfwaaZVeadJv95iYKda/QsC3Q60BFqclitEKkctGEjVsWzkVtmz0axksXMX9mYEGrqijR4L2KnS7ib9gLBAJLMsqal0AgEIwPIngJBAJLIoKXQCCwJCJ4CQQCSyKCl0AgsCQieAkEAksigpdAILAkIngJBAJLIoLXWONYiPKKHVjm4m1BaMSYBUeMix8xCl4OZL+8A9to4KWjKJ2fNyIdyypK4eStEfTOCwRWQPhvtIjNfw9ylWKbsw3ba1v5CTOwSXahc2s1OvgZGb3zAoEVEP4bLWxrMh2/fNLGPsqD6m20IzPbLnUONe7BvvpB6bMhLJ19MRcP8ubVo5sh31PGnrcBS3HE3L0IZ9EOLNEuTR01PPgF6un/PNZfjJm8pdUlKJL+djT5HIpliuuR0CDLavVR39NZtAEJHe1ILeT2e89i/7un4eH3yExgJ9txXOOs+vcMPQ9+sr5xYURgO0f3nnpzezePGS3G5exezjQ8SLo3e3KRSW1FVk9P7XkJlS4RjQtLDArtaN67G41kLnvX1mV7AsZuImJ7Ze/OXzolw/kkKoPJnHM5cEwaPCOYXB68fPBkp04Du2dnGhtI2ZlG8PgG2hjZIYNnXnp6skl2w/uuIqN3Dy1MrgT4WGWDnu2al1ZySLviZHI7tUP9ApjQwe+eRvbx50H98ilEarvRPdk9gs9t4+BdPGZSwAAFiDak0nMTKFAeQ0nwBVpju9EzIh4X384G5vSfEAD/B9IAWf2JZfUwAAAAAElFTkSuQmCC;" parent="1" vertex="1">
                    <mxGeometry x="930" y="232" width="303" height="48" as="geometry"/>
                </mxCell>
                <mxCell id="152" style="edgeStyle=none;rounded=0;html=1;exitX=0.25;exitY=1;exitDx=0;exitDy=0;entryX=0.5;entryY=0;entryDx=0;entryDy=0;strokeColor=#FFFFFF;strokeWidth=3;" parent="1" source="151" target="121" edge="1">
                    <mxGeometry relative="1" as="geometry"/>
                </mxCell>
                <mxCell id="151" value="" style="shape=image;verticalLabelPosition=bottom;labelBackgroundColor=#ffffff;verticalAlign=top;aspect=fixed;imageAspect=0;image=data:image/png,iVBORw0KGgoAAAANSUhEUgAAAroAAAAsCAYAAACKXRtuAAAAAXNSR0IArs4c6QAAAARnQU1BAACxjwv8YQUAAAAJcEhZcwAADsMAAA7DAcdvqGQAABQJSURBVHhe7Z17TFTXvse/vX+q7YlGMvgYLKKcatpIE0cC1Edb5ZEqpzcmBiG0YOuUKc0xN42otPgodRSa/qG5igd7fBwCkiae09uDAR/X5wGimHshNfe0qKCMVojG5hjrv717rb32zJphZs/ee2ZwGH6fZIXZa81ea89ea9b+znf99uaFF6fafgNBEARBEARBJBj/Jv4SBEEQBEEQREJBQpcgCIIgCIJISEjoEgRBEARBEAkJCV2CIAiCIAgiISGhSxAEQRAEQSQkJHQJgiAIgiCIhISELkEQBEEQBJGQkNAlCD/S4WxqhjNdbBLArDnoPbACJx1ie9wS5b79fS12dQ6jokBsx5oxbS8ftRf3IFdsEQRBjFeCCF12MbiMcxdZGouJbqzbGy84ULlzGJ0NLLVgbK6lpagfs7aeR7+Hv3jnur9BducuNPaLjHHHJNRtX4EnijDlyTld5EcbuZ0FKBe58UzQvi1owaHOFixRvm/vtg5jV6Wm5ktRwfPHM+pnOqSIY/UzBhDyszM6ULMXqGpyYb7IiR1Wx9J0nIyrseeA48AwPvnbMPLeFFkEQTx3ggjdfjSWLsPKFW50i5zYMtbtRYfy3BKcnCs2YkIPDuxMRo5rMzpFTmIRh/2evwdVcKPs0LhVucq1dg5cwzfwUuVFNTU+EgURcP8uMpS61vaIbc4zbPmCtXEDZ0VOXKPXt57b+Fm8fDDg9yH1+akGO3KScahdbMca0+314LuiZFTkbEavyBmF3mfv2IZ6z3q8ly+2Y8Y4G0tBYSJ3P/D1GlzVTihBEHGB+dCFdBeOcRdOTbXyJBhQxtKxisjWCXPd/vXptefXlokyvzrD8jvUFZVg0+M2rB0QWZEwuxat3LX1pdY/hFkjdrSgtUJJ7P07a1FZoe5Xz3dTXdnKP3SHqI+V+9pS9wEKeB1fIQdv4XOtvKJULdSY+hp6P16NuqliWyZUmZUxoYiSY24lsfc3ueAUY0DtJ9WVdVY0h6iPlfva0vpWHUfVyFI+YZVW7vbv+NxlOei+3CG2BMqxnLvoW+6ez9uN0IHm50SuQ3W3zY3D4GTOmIyB4Wdiy0e5U3PM1OQNQ3AsQK9TSSx/+xzUifep5RadNh7qIL9frSfWoQ9+c4WRvjXAzMpu4YjKjqeeU6o6we8G3U9BhB9oZd4whIIW7KpXEstvrcW79XK5vjO7RLx3VJ1R4MzlTmSVRMfVDTkGdVFd27rCxd79egsniTKVV6QyuU5r7VmlBz2VWeiJxjWBIIioYlLoKiKi8Q10OZkTpyTnCdi3aiIgoGxvJ9AVuTt2plrU521PEwiKOKiR2lOSry29Mr3PEI4UnFTEXN6tNmRc/5fIiwRFdH62Eld2M+dWSUfOA32bUfRf4V0l+yLgOHN7bRux9MEabOgYRMpMbSZ/C8UzDqp17j4MvF6I3/N8Fg5RgAssn6fNwAY1VKH9kLrdifP4Uis/1MT3so71MTE7G2hhbq99PbKHPoSr1QP7y1on5WBdSpO3/5DztrgQM8G4HFdEnzO3GGK8qOOIucedqNfKq2Xhk4+l2Z24EqiFOrYpxz2EdWVMOOXjvaIhZf9tOKOWWqP/v9HlycFSTYulv41sjxs15nWYl0xxsT+bNwVz85aIi/ti1M1Sy482CoeXJfcg0sp8QnSuMpb2MTfNloq84WtYdfop0mYwMWHRabv/EKdHbFitDcdZSUq9NwIc4SDwH0sleCKnoteQKYr1YCKXObZqvxvsW0Z7MSqKanBPuJ/+bulbyJ9zEBU5qiv6oHg/3uVfpHBOqbTfBuX7t7QQs3m+IoKPrMT/bmD7qmUzPu8WdQK2HOAUq9O+Ea/fXYMvWwYxYy47ifrtXasS9XnrNBhyofvZBR2XlO9gClLFZiTojUF9bHAl3xH73sDtvIXece1XxuosmOMdL5bai2AMEgQRn5gTuvnLkdXV5Itx629AS5cd9lgu4XNHTbg0jevFBYPRjwuKblrXGMwh1Cmz+hn4BLhUmfibg4rczMWrpcnxDYMTeAT0tUO9Lp3H8VHCWBGrmki9148hWxr4x5tdiKU2ybHlDm4q5vpOqj6//ICMg23Y8ovYltErs0LXJSEmO9EyShgrYlUTMv2D8GgXYiYY7ZJjyx3cFHj1sVUUsesaKuX1YW+EIpfTj8bmTmQtU5VubpnyY+BYBCpX4er31/kFnYnUgdPXxAX+OrbcF29wLPA6W0+qlT4X2Zy+hzjKX4xg3/ej3WDzKAK5fQSrXlfjg8vfScLpUwZCKPgYasZLcmr9AVdFcWiYkPXg2wjP4WjO40iV9mPvRwx7UpFsaK6T9vupHw/saZjJXhcUIKPzIL77iZfwUIRTnVKdne24xl+cx6kDJkIoeKytcHSPbFSkX7SJwneIoTcGdRnBJm8IzjPcGpmCefyEMqSy+7/itm0SFqpb1tqzPAYJgohXzIcuhKQDVxTByMQlFxlb4RMjlslH7dYUfOt1Zv3jOW8eKuH5u7FDbVNartQrswSfAK8oh1SC3sW/E5k+rl5vkybHfwjhEI4mXOhLRfFnQnhugE+gxoqRw9jgdXRZysKBe6Is6sRiTITBcwIuzdXjqSRKN5YNobtLdpUjhDll2cuRy0Sa/R+4EJVjDMV0nCybjAa35nCNQSxkz0OcXZSk/OCbjtXJD/FXTXDrEZGbNoQ7MT2HjEEMx93SdCkqPk9Fh+YS68XjWiYa5zaaY/ApboWNg7XYHjm6BJFwmBO6A0O4l13qW+ZPd6E42wMPm/zZa7ssMoI4X8KdtRqLmOtmDt1ouKh1nsA9e+qoWLJRZXqfISxDWHuwDafnrQ4qdk0zuxbvJ8vCs1i4tDGCu7sb8YFurJqOw8svAiZidI2MiWjC3d1wN8+EcqcG4JHDCWSUcduQcgk11bvQlfPN6PFraVyzHwFKe+7lQHMDbopcLxF+V/Qod76KVeJ17HiEtj4bVjuTgPa7xhwxy26aei6LQ8Z+6/StUQr+A/n2QfysubFWGLiNkZyPvaEKLF73nZzoiucl9V8hQ7yOCumpsHuGFIkfQITj0/IYZDdb2n7Fj0Z+OEkYbi+Wjm4Mv9MEQYQmiNDNFzfzSDfuaI+Y6W9AGYtX1Bw6Hn8pHDMWAuBZjwa+r5aMxL7qtBfgCBYPnZAcXW0/kdix1GqCQadM7zMY4l/Y0tqMfdNWR/7UhXs1OD68EUe8oQQsdaOSC03tpjHpBrGdtSLW1ipNqNp9GCkbpPb86mzCnzvgc5gDb0Yzi+6Y0Ot3q3SghsdcS+351dmBv7SqIS28zM/lF+EEgTfesIuT14lmT4pgcb8BITHsx5Pyx6zbe+aYcqzZCB47arHO4DDROQWuanUZd9PwoEE3jd0IxPZhIsGGfez1di0GUq9M5eipQaQtAtpMrMJb5Uy1G56ib3z9bqRvw/IWNmghAZ8DR3KKRWgBu+GM5TNRKd7TWiuFVYWAPTXhy0HkHxF18njdLF8oQ0j02mvC/3Smeut85+5hydG1eJwSuWXr4Qn2Q8z0+NQbg+HGkshjqQzYVPlPAytmVse8VbRHi/0dmTOB+X9kr1uQJko5Uf1OEwRhlBdenGr7TbyODCYISobgKvVNiuwGkeKhDyO+IS1hcbSg853b2LCzBtq1jj394P0HawzdkBb3jMMxYe34mGhn8bvLTN1Qxp7g8Bl2hWjLWp3xBLtB7k/4P2REJe43cmg+MkmQ76+PsRqfTAQnoc2QuI13xv93miDGI9ETuuJL7Bda0OUOuPuZ8Ie5tsyxlejbHIWnHcQL43FMsCc37ABqjbn8TKw2FNlxr9W4gNL2CXUurNQZTzCBy57+gL4b0XmOb9Qw17cTG/bdZU8wGR1uNLbjMzGE7nj/ThPEeCaKQpcgCIIgCIIg4ocoPnWBIAiCIAiCIOIHEroEQRAEQRBEQkJClyAIgiAIgkhISOgSBEEQBEEQCQkJXYIgCIIgCCIhIaFLEARBEARBJCQkdAmCIAiCIIiEhIQuQRAEQRAEkZCQ0CUIgiDMMWsOeg+swEmH2CYig85ndEl34djFy6jNF9sTBvYfDfcgV2wRKiR0CUKXSajbvgJPlIvQkwMLUC5yI4P9W1OjdZl5b7Rh/zL3Ms4pF4xzUZs8zUzEZt4rH2sznOkim+OA48AwPvnbMPLeFFleWBtivyYX5ovc2BHr/oxF/c9zDFrkzRbe3/6pG465rNA3HvzzFdh+1aViQyWt2jdu2Gu/OgPeO7aMl34ZL8c5XkSi3nF2oGYvUDUmc9n4gYQuQejyDFu+uIiXKm/grMiZOPSjsXQZVq5wo1vkxDcefOtkx1uCxn6RxUXNfuDrNbj6s8jyQ7kwrFD2cZ7APZFDGOD+XWRUXsTaHrEdb1woxn/+e7KSNuMmzqOdv85Cz4AoxyCufsryktHyHZD5aS2miZJw3Nyv7seTu0nkRki8n8/xRn8DypTvdU2H2J5IdGxDvWc93ptwbnZoSOgSRASUOzW3V03epUfHAvQ6lcTyt89BnXifvDT5SuFi7369hZNEroJYxlTLXsUqkc0I2d5zINetOahq8i4T5u/BMbeShEvqFO+TlxFfrmj27nesQrJfxZKjWlaNLJHNCNmeLj3oqZQFzhjg13++vlX7jvWnDfu0cud0XsYI3beqI1YX5fFS7lyMOoe0rzJOM0VZ6Dr1VjjYcWplavI7zoDy5zl2ZR5fOYfHM9MwVWyPLeHOZ/B+DzeW9M61br8r+I0ZQ3VGcpzRRm8VSnVCnUHmHnVuYfNNDqpE2Tm3PMFIKz9KkueeXHcznPnSvBXgpvrNW4bqjOQ4Vc5c7kRWCbm6GiR0CSICjjYyt1ck9yDSynwXq7mLgH3MCbalIm/4Gladfoq0GdqF3wZX8h2x7w3czluIulksX7loVCfhtFur199J1msvJFNfQ+/HJXgip6LX/C5uVjhTzdxTkZwnYN/qu7DMzgZamBNsX4/soQ/havXA/rImaHOwLqVJ7OuGp2iHCDVQJvjGN9DFXVm1THaS9dqLHxTh8oHcfxeR8f0zXqL2HevPEWzS+rDxES9j6PetNF6UMmQkif6LZLxMgasA+EiUbxpORRUXL3p16q1wPMJarS1WPjKIj8RnVwVdEtqkcjzHsSszbelKTOtpx22xHY75f/SFLhS/H6laD7diFLzf9cdSuHMdqt9VYboPN8R+ZuoMPp+FG/Mhsdzv4VahpLlHmUOQ8zYXg+rcwvbpRL02x1RrdjATz8txRctX3ge/uceOdSXAblEuu6lMmFbBLfYzU2fwOVL/OCU6LilzbwpSxeZEh4QuQUSCY4HXxXhSnQot1I/T9xBH+YsR7PNe8DWUid874T/DrZEpmDdTeelIwqq+O9hyXy0ZhV57ofjlB2QcbMZLcmr9AVdFsWXy93gdh3ON6zFbZHO6LuEMf9GJlkPeOAKBMkl7J+cBeDx22NkHyV+OrK4mKewgAL324oZn+Gsv4KoOdDMNoNu30ni5/ytu2yZhIXsd4Xg5237XOw6YKOFL5+HqDIsQRV/46sasJOTZJFePu3yT8Qr/cadDrMauIgEyvxZiddZBUyEIcuhCy/FYxxqE6Hc9DJzroP2u/MBZvegpGk4FEaJh6wwxn1klZv0uzT39g/AYEYPpbyPbLjmo3FFNgfd3u0J3cwNuitdMjKohE/lYmu3Bt8eCCNGwdYaYI03hf4wTGRK6BGGZ6ThZNhkNIdw0czzFraAxpDIW24uJK5aP2q0pIiZWcxms4oEnbGhBNNuLLVe/v8775yNFknBRYGipNppjSSMWdYYns3Ah5rX/U/zIkxgZxCp+HFq6Hl5Mx8zRFTG6nx7GY8dXOs6sA9PCifF4xMq55vyKH0O9z1SdRuYzHcbAyTeF5wRcmoPKk3wfgB5DuBPqfabqNDJHBqLT9gSDhC5BRIlyJ3M5LOCYA5dNXGB+foaBRUliSZA5Y6HrNNxezNwRH7lu/3haw+SXY51dTMgDQ7iXvVws37GlvdB1Wm7PLMJFNhYP7A8XvO5BDCRPDrhAh3cyDfdtLMaLiTpHMWsO/pR8Z/RNVdyN9C2RGybWY3egBh3fDWLakkL1ZrS7txXhW4A0XqgwtxDzZ57HrQtiOxwRjBdrBBlLVs81HqGtz4ZNwVYizNQpz2deDLj3MmMwZwUniAvKnV8rN3d14EpXDorlexA0zNQpz5Fewri16amwe4aUn3MEg4QuQegyXdyAwS72YunOe/MGuzBM4cvUzLnbNDxowjGTlgHLgE2VwgG7fxcfnZ4sypZgXrvswkXSnhW0myWYqBTLbN4bLdgkbse6RnXprXjohAmHVVqy2wrUr9imhjn0N2B3a4oo+wb2Ztm1tdqe9iipvyNzphZf2eITMuFg4lv544svDoc2XkRisa5/lpbwlT6sP62GNvByr9trsW9jMV5069T7Piii+INUzF30Km+PJ+m7spbHCIt8v7Lny+PjB3Fz5kY42CPEFOHbsh8oEDG4n3y9Ejc/LfaL35VjdEc9XszyeAl2PsMReixZPddHG1l87RLffobrDDGfcUIdZyzQm7PC0YG/tMI7x/hu8upADb8nQOSbqPNMNYuv/ca3n+E6Q8yRnFDH6SO3bD08UjjFROeFF6fafhOvCYIgxinMAd4B1BpdUgyAPe2hBthdGnhxYBfOamDvBH1UEWGSiThemFhnN6oFCVchLMDGELtRTRa3JmCrCiVDcI2ayyYu5OgSBJEgaI5v4D+M0EM4QEFubpvPH+9TDXvrhyRyibDQeCGeP8p8xhxgErl+kKNLEARBEARBJCTk6BIEQRAEQRAJCQldgiAIgiAIIiEhoUsQBEEQBEEkJCR0CYIgCIIgiAQE+H/Y1tVN++bQCAAAAABJRU5ErkJggg==;" parent="1" vertex="1">
                    <mxGeometry x="1220" y="-250" width="698" height="44" as="geometry"/>
                </mxCell>
                <mxCell id="153" value="Diferentt Families" style="text;html=1;align=center;verticalAlign=middle;resizable=0;points=[];autosize=1;strokeColor=none;fillColor=none;" parent="1" vertex="1">
                    <mxGeometry x="1800" y="-270" width="110" height="20" as="geometry"/>
                </mxCell>
                <mxCell id="158" style="edgeStyle=none;html=1;exitX=0.25;exitY=1;exitDx=0;exitDy=0;entryX=0.25;entryY=0;entryDx=0;entryDy=0;strokeColor=#FFFFFF;strokeWidth=3;rounded=0;dashed=1;" parent="1" source="157" target="122" edge="1">
                    <mxGeometry relative="1" as="geometry"/>
                </mxCell>
                <mxCell id="157" value="" style="shape=image;verticalLabelPosition=bottom;labelBackgroundColor=#ffffff;verticalAlign=top;aspect=fixed;imageAspect=0;image=data:image/png,iVBORw0KGgoAAAANSUhEUgAAAZIAAAAnCAYAAAAl8s6IAAAAAXNSR0IArs4c6QAAAARnQU1BAACxjwv8YQUAAAAJcEhZcwAADsMAAA7DAcdvqGQAAA+JSURBVHhe7Z1/bBVVFse/sH9sVtCNG15fXW2hEDH0Uewm/Fjo2pZSaomsmqC1LUEL0Yai648/ROhaWCiWH/uHYpR2KwGyTWnXlY0xEPlNQVuWH7uL9gehxhZa2eX1NdnVCP+698zceW/eezN3Zt68KS3eTzKxd+67d+6cc+455947xHF33+v/AZKRxb8Ya14qQOjD9fhrJ79nySw8XZuFnppmdPM7o5MRHGfWcmwomckLGkM4897baAv6kf/yq8j18dvh++xPahfoxObWL9UqRqB0KzK7VX3Q38sCvILobon67ehH/+5dOBCni9FiS1bjZHg0V0jHeaF3sOsEGQRhYyyOcSLnkdCJF89Q+xzPS5KRJHgMu2qcTAyJIZ3N2MzkuLmmBZeVyU9/82ChQMGD7q1HQxuQ+8xipPAaKy4zx6X2za4xFUSIINrepbGTXEYzNsbpxVxhicQytOiCCDFWZDY6kSuSEUWU9aiRPdSWgtx81d0Nt6kZU1yGTERlydS2DDN4iZygNvECpa/B192FzJICTKIboZNoePcYc7EqUX3b6tPNOL1CHVN0pkWyLgf+wgOLktmm4DT9xsaKRPs7OZjLTMW5rIlYeev1rhIvF6GO9DJSKlR79Z1KpiyMMNOfYIXAVyqKTTOc2KBYv0ZjEcia2dIauh+YiUlsbp0ZKkAuK6v1Yv3FvoP+Pa11a0KCchE9z8yH+HRtZCC5LRgZK91jzkQ/qZ8BPgo7fWMDVydcIULvavejf6cYSEokeFA5aguHZWb6SaYi6jNmnEp5EULatpHpOAXETShGTMATY/TM6ECSsug1rPadUMfscGsr2ukngkhmDmQdZxM6FBnqgwBhJBfC7L7qvMOBg/pcGMQunZwM8UR/GkZ10bqNx2l/eqzqGXpZky2VgAWATmQyXfmYrXyEcjyF/cxm/KwvM73r/6ZOBc811K0RbuSiI+Z5Ih+i9Sm3tkYVLCPRJm0wiJAvBUpCJsI/C5m+mVhWuxUblIsZLlg7P69nXD4VmdDdrREDyAwM4cwpAydh2adunGDjDLE6NeFKDL59Ed5Kosu2ExLBMsGX1HcIBxGbUEamjcVdENEwkZkTWcfaBDkxrV2sI0+IINpOdWFGYJZSCiyciR4j+4jFM/2ZEUQP83Ck2zWLdIbuJSJZd3dyx9yF03G2YqL3rCwWYE6YOHxGQrp1IReL5xn7kAgykNwJUPYXNZHNMpJYhhAy+52jPlk/brwGZUCaEWvXy/bPM8zhZyTvncRwoEwwufzuAmFC6GSWkP5YJliSEj4DStrefmcnLgeyEKBEI6ULPXbsyDP9mTN04m3lvSn7V55XqgY/b0imrO3MlcSfl5hc3L+fDCRjCn2mylGy1ALkZfGybb5k2ctM5Bk5Vyd9ZhUi1xcbkAzGKcLrjJb1/1HbECaxTFtxbkNDLLCQs+QoqwLmNGOyLFN49va0Y5lz9DJLWH/RBEppJeMEMx2pdpFZygaky0KFjPiKJILiOClRSPHHBC6z96NVAXs/F/J2LmuOXu9RNkhbUuZ9Gj7PwgadyyVCIrb0k5/+bOIfeEniObSf+CqeKsiCjwk/s6CQOZDxuHyuDzeZMQUK/Aid6kRI+W1sOYjh8fOxrOQJ5FE7fwinuxRPhJ6e8chf+QKW0P2oPpmKZxbCFzqBHoNZHeoKYcqqF9h4eDtbfdK4FiFXux8YijkINRunl8TKipiIKfPYLOv+O64yQdzsv4WUpY9jyjCTRV8fLgzPQtXvytUxzp2Ai+814gIJjEEyy13I38/oHcalIjA3AxNCXbjQzxsJEcnMStZmNhHEOP8TWLJUbZPScxLXpkzgdSI7I8Q6CoXYeJYymbTq5ekFonHaqVPfXdHfXibPsCpE73cTV2+l4qmFqTp5EKLnCWTNkpC8lCHWP3PAXDe3ps5HJjqZbUw01/vNPlwbX4hnV9EYf41bh1pYYLGjWw49N5CC4W793E5ULuLniXyI1qc8bJc4hIzVxoHdHQ3JoAyw+yXNGJMZfZigHhZ7nQDcPujAOPrfkUjcILe2JBIHkJOlA3H6OsdeEBk7qO+mfphwpzvY7tZ30BMoR76TLViJKXJFIpFIJBJXyBWJRCKRSFwhA4lEIpFIXCEDiUQikUhcIQOJRCKRSFwhA4lEIpFIXCEDiUQikUhcIQOJRCKRSFwhA4lEIpFIXDECgWQ6KpuaUTmdF8ca06uwr+0Maot5OWmMcbmMKMWobduKIl667dw/GZfez8eBObx8O/HMPk0YTfNhNOnBCx6qxab2G1i9hJddI5pH7uaYRSAh5Z7BcWY4xxN8SFHdbixo34TGXn5jVDESDsr4GdZyGWXOM4x7mzBG9L6HUbMNWNtUhQf5Hfvche0b8vEdczjKVen+/9phjP45M7CS33XHaLUBJ9izl/j54IU8qc/Z2H4/LzpFcexn8eRDvKwwB0+23kADc/gN7fsxl9/1lhVYLXqW4TgJ0TxyM8csA0kvGlfkojC/Dmf5HUcUb8Va1KGiYVRGEXv01qMiPxc1h3k5GYxpubi0iUQ5vB47BsvwrNNMeM5kVN3owj0vtqlX4zCvcMH1a8hmfS27wMsKt/DGZnpGF47xOyOCF/YpwvHzbNiL4XywIU9DPYw0F/BxaSpW57yOS/xO0rhSg405qWj4lJeTgWgeJTrHGGog4ctVNWtQr32rLdaYTPn76thFv2dRrLJObadf8hbl5uDsmRiLU56lz0zUjMXrpXkRH59y1UU/bMrqZoP3FmVSaqZYadiOESXPaszntzUM5UJYtHMM09Hxtsh2wYPKeHXvEqP3aJ3TO0bq7OtH3M5ID+o9et8crI2p03P0TDvmL3eWMc27bwL6btzipQgrK7VsV73C2yNzZuBSJbvo/obJ2M5/p9YnmCUrWzD636v92N2S8dY+dToSzmnxyiJKr+E29jCdD6aI9DAJB9i97Y/P5vX5uPT4XbwumnnKbxysUK704j/ox7+v8LId+PaUumKJ2aaKqaNr04tkFOarnLk76N4fkY0CrNLa7VjBazkW4xTNo0TmGMECCTO6xt+go5KyBnZtawc67GXLDywA9lOmkVaGBQPPo6p1EGlTNIMtxiML2vFZrH30nkDHYA4e0Qxt+iIsGKzzNKMiI6eMR3k/uqr1D8tBSXoTr6vDYOlG7nitMildu8oWVlzEhR8jz7j2JnKxbJcALMMo3DaAkgoSdjGeLR3Ajvz1OKpUMsdQo39erk7n5DTy8Bm/T2PBunjnEY+4nZkejlarvz2Ldja+6LooDp9mtpaODF4UoTqJfBx7dCKmPjqXO5WI09jbyFcodNX1Y1pFxCFNfRjYSZmwPwOP3jiPxUe+x7T7yBkluOq4HsKRoB9LtcBxv4/126Vm0vdm4dKa5fhOf5VmYZ76S4bH9snq0tZFkg3zOS1+nqpDfZ927IUwmw8irPTgR1Xq1bBuke3TyVOF7ONYdgiLX7yIN66zG5Z6IJrQkFOO87xkzQqs3lOIf62iFQu7Vn2A+97Utpxi6racBNpfx8b3ySjMVznn12r3T2IPtaNrbROv1bAYp2geOZhjetwdtnec5k6pHfttb9Mwg2xmUS9XjSRFFcyo99mwIr2ii9KVW/NmL8Wl2T9X/jaHDHUQH5o+gzmvsNPqw+BgGtKm8qIQXbvefgxqwi/Ow/yOJudnQom2s4IFk6qBFSxLrAa2aUGE6MUpljOUNMauRBgU3NN0qwNltZCOcI5ghrCdlR7sYmMcjHOfXFQcCQWBviPnVaeiOQ2CrTy0jPW76gxEqfyLEPYqfwSx85P41YxzmOP7NIjFv1LPZ1Y+5sORQ3yL7b+dyN7VjHv0V2snzqm1DI/ts7ce+zt0fSY0pxnK6pfrvbEMD/Dbt4cgXtG2MK/fxNf+u5CplhgTUVXNEgwKIpuvReRsqYcEWLIE2e278LG2MrhSg0PtGUi1pT+vEc0je3NMDwskh/EZMyRyKIoRrIPOcD2Cot6CPJaxMOeS9jlO2bDXedMms3B8kCn4IOp/8YgSUI7N/R92XvyW/0LEAK7anhODGOzjf94xDOBsh361qPJVw3Ilg3wLG1Xd67eTBltQpWWYyrXcXpATtnOiBzOS0cckHKiYgPo6Ci4JrDAS4UIIxx72sVXPJCxNDeFvWkCzlQnrGY32yVY569LxYTJX057xPeqPBNmiRR9cGI714JYm/JMFleI9fHvqTWBP3MrCS0TzyPkcG0/7peVp+smvz1rdQNmTbgsrCgperK4uD2iux1f8rohzFw8iWwka3+KNVi1r+JxnjiLUZ5XHZt1GFK9ESZpLR9U3gG+UIEnQVk/sWYeJXCzbMXjW52T/mdrUp59GTfUmdOTsNmyrBJTKFnyTlqFufygZbAKHbsJ2dvRgkQlNz0Da4AD6eTFMInLRsbJyJhbzv71jGAe/8GNppQ/4NMFMOGn2uSLymS3Nf7ZSTGZwKqozsF1TRH7CI/5xGffsA3bqz1e8WJH0fY1gzprI11MP1eKxnH7cIFnT3+kfYIu2PeVoy4zIwC/jvsqyidk8IkR1AsYrS9vBMtRTRhq+tD1TlmkoZTIMvmVh+/MwvoVldqizrwVpC+BwbzQxjlbT3vLuyPtFHeTqtmJoNRYOpAm+O5PnW63pvM/dSGuOzc5M5GLZjkFOgP0ndmVhCjnY8AqT9rjpzELbytLej1+0b16rBfXDqFH2uXX14XcXyUXUzkoPh/HnVnWrLb5OpaiiDINGiYdTuShOXd3ioK2tV27021yR0EEutaHA42eOiP29YTLPWkV1KnsP9WPaw8BBR18ZJd8+K+jcTJOzcl5iZ7Up1rt+V6N8oEVnu1bjNPMT7mRtyQUtmLj9dyj0KW7MAXhrrbq1R19dbemPrDqUM5H56lYXbXMNvIA3lbbapTs/UcoGfSo04eB+Jlmt39jDdgtM5xFDVCdi3N1le344vnwAVSsijelQtHzg+aR8nmrWF31B9HtsSsozxiKJyZgmJZ11jODnnqMFCooxdhphbMiFDnj/hB5kJ+Xc5c4imT5nTLBkPxqe+xpbSmuUJIigL7Ieu/ZbfuDuEaJ5JJxjYsbdfe9zP9AkjFqKdtQZfzWTELRNsxGoVbMeCiD1pWlJfsZYJFouVmhy+6b1RzTZwlCgoK/B4rddx4JclC+EHp0IfNGVnH/HckfibD6MfWjVQSsOHe2vG3yBlUzM55G4zhr5/2yXSCQSiSvcff4rkUgkkh89MpBIJBKJxBUykEgkEonEFTKQSCQSicQVMpBIJBKJxBUykEgkEonEFTKQSCQSicQVMpBIJBKJxAXA/wE6vgWJ2C5qkgAAAABJRU5ErkJggg==;" parent="1" vertex="1">
                    <mxGeometry x="2090" y="41" width="402" height="39" as="geometry"/>
                </mxCell>
                <mxCell id="163" value="&lt;span class=&quot;pl-en&quot;&gt;rlassologitEffects.default&lt;/span&gt;" style="whiteSpace=wrap;html=1;strokeColor=#CCFF99;strokeWidth=2;fillColor=none;" parent="1" vertex="1">
                    <mxGeometry x="2400" y="155" width="150" height="60" as="geometry"/>
                </mxCell>
                <mxCell id="165" style="edgeStyle=none;html=1;exitX=1;exitY=0.25;exitDx=0;exitDy=0;entryX=0;entryY=0.25;entryDx=0;entryDy=0;strokeColor=#FFFFFF;strokeWidth=2;rounded=0;dashed=1;" parent="1" edge="1">
                    <mxGeometry relative="1" as="geometry">
                        <mxPoint x="2320" y="180" as="sourcePoint"/>
                        <mxPoint x="2400" y="180" as="targetPoint"/>
                    </mxGeometry>
                </mxCell>
                <mxCell id="168" value="RlassoATET" style="whiteSpace=wrap;html=1;strokeColor=#CCFF99;strokeWidth=2;fillColor=none;" parent="1" vertex="1">
                    <mxGeometry x="2270" y="-190" width="120" height="60" as="geometry"/>
                </mxCell>
            </root>
        </mxGraphModel>
    </diagram>
</mxfile>